# xmcd CD database file
#
# Track frame offsets:
#	150
#	11975
#	24516
#	36561
#	48891
#	61687
#	74939
#	88512
#	102542
#	113283
#	124590
#	139257
#	154072
#	169749
#	182694
#	196297
#	209355
#	221645
#	233233
#	244863
#
# Disc length: 3432 seconds
#
# Revision: 0
# Processed by: cddbd v1.5.2PL0 Copyright (c) Steve Scherf et al.
# Submitted via: CDex 1.50beta10
#
DISCID=210d6614
DTITLE=Bo Diddley - Who Do You Love
DYEAR=2012
DGENRE=Blues
TTITLE0=(Call Me) Bo's Blues
TTITLE1=Cadillac
TTITLE2=Live My Life
TTITLE3=Walkin' and Talkin'
TTITLE4=Road Runner
TTITLE5=Blues, Blues
TTITLE6=The Clock Strikes Twelve
TTITLE7=Before You Accuse Me
TTITLE8=Mona
TTITLE9=Who Do You Love
TTITLE10=Down Home Special
TTITLE11=I'm Bad
TTITLE12=Cops And Robbers
TTITLE13=Pretty Thing
TTITLE14=I'm A Man
TTITLE15=You Don't Love Me (You Don't Care)
TTITLE16=She's Fine, She's Mine
TTITLE17=I'm Looking For A Woman
TTITLE18=Little Girl
TTITLE19=Bo Diddley
EXTD=YEAR: 2012
EXTT0=
EXTT1=
EXTT2=
EXTT3=
EXTT4=
EXTT5=
EXTT6=
EXTT7=
EXTT8=
EXTT9=
EXTT10=
EXTT11=
EXTT12=
EXTT13=
EXTT14=
EXTT15=
EXTT16=
EXTT17=
EXTT18=
EXTT19=
PLAYORDER=
